<svg width="375" height="28" viewBox="0 0 375 28" fill="none" xmlns="http://www.w3.org/2000/svg">
<rect width="375" height="28" fill="white"/>
<path d="M0 0C9.11458 0 14.0807 2.21781 17.7083 3.83674C20.6979 5.16892 22.5026 5.9739 26.7865 5.9739C31.0703 5.9739 32.8724 5.16892 35.862 3.83674C39.4896 2.21781 44.4557 0 53.5703 0C62.6849 0 67.651 2.21781 71.2786 3.83674C74.2682 5.16892 76.0729 5.9739 80.3568 5.9739C84.6406 5.9739 86.4427 5.16892 89.4323 3.83674C93.0625 2.21781 98.026 0 107.141 0C116.255 0 121.221 2.21781 124.849 3.83674C127.839 5.16892 129.643 5.9739 133.927 5.9739C138.211 5.9739 140.016 5.16892 143.003 3.83674C146.633 2.21781 151.596 0 160.711 0C169.826 0 174.792 2.21781 178.419 3.83674C181.409 5.16892 183.214 5.9739 187.5 5.9739C191.786 5.9739 193.589 5.16892 196.576 3.83674C200.206 2.21781 205.169 0 214.284 0C223.398 0 228.362 2.21781 231.992 3.83674C234.982 5.16892 236.784 5.9739 241.068 5.9739C245.352 5.9739 247.156 5.16892 250.143 3.83674C253.773 2.21781 258.737 0 267.852 0C276.966 0 281.93 2.21781 285.56 3.83674C288.542 5.16892 290.365 5.9739 294.638 5.9739C298.911 5.9739 300.727 5.16892 303.716 3.83674C307.346 2.21781 312.31 0 321.424 0C330.539 0 335.505 2.21781 339.133 3.83674C342.122 5.16892 343.924 5.9739 348.211 5.9739C352.497 5.9739 354.299 5.16892 357.286 3.83674C360.919 2.21781 365.885 0 375 0V28H0V0Z" fill="#FFF5EF"/>
</svg>
