<svg width="72" height="90" viewBox="0 0 72 90" fill="none" xmlns="http://www.w3.org/2000/svg">
<path d="M57.9962 64.7355C57.9962 64.7355 61.5325 59.9975 63.6676 61.3577C65.8027 62.7179 60.1933 75.0856 53.6974 76.4649C47.2014 77.8441 57.9962 64.7355 57.9962 64.7355Z" fill="#FFC500"/>
<path d="M12.713 64.7355C12.713 64.7355 9.17435 59.9975 7.04161 61.3577C4.90887 62.7179 10.5159 75.0856 17.0119 76.4649C23.5078 77.8441 12.713 64.7355 12.713 64.7355Z" fill="#FFC500"/>
<path d="M66.7225 26.9296C62.1544 32.0749 52.3152 40.0192 47.8973 37.2584C43.4793 34.4975 47.659 23.4423 50.7401 16.9582C54.3789 9.30457 60.6794 4.08065 66.856 8.93296C74.1097 14.6285 71.4884 21.5366 66.7225 26.9296Z" fill="#FFC500"/>
<path d="M71.2978 10.1331C70.8998 11.0311 68.9148 13.4061 68.9148 13.4061L66.5319 11.2979C66.5319 11.2979 69.1174 9.35415 69.7774 8.95872C71.7267 7.78435 72.0007 8.54662 71.2978 10.1331Z" fill="#FFC500"/>
<path d="M68.169 6.90853C67.9307 7.86136 66.7749 10.7199 66.7749 10.7199L63.9154 9.3454C63.9154 9.3454 65.8575 6.74893 66.3865 6.1939C67.9473 4.52644 68.5193 5.45784 68.169 6.90853Z" fill="#FFC500"/>
<path d="M63.7557 6.12918C63.689 7.10822 63.0742 10.1216 63.0742 10.1216L60.0026 9.29021C60.0026 9.29021 61.4562 6.40074 61.8708 5.75043C63.1052 3.83047 63.8629 4.38549 63.7557 6.12918Z" fill="#FFC500"/>
<path d="M4.93508 28.3584C9.49603 33.5037 19.3376 41.4408 23.7461 38.6871C28.1545 35.9334 23.9843 24.871 20.9008 18.3869C17.2644 10.7333 10.9615 5.50936 4.78733 10.3617C-2.46636 16.0572 0.154886 22.9653 4.93508 28.3584Z" fill="#FFC500"/>
<path d="M0.355081 11.5628C0.753033 12.4608 2.73803 14.8358 2.73803 14.8358L5.12098 12.7276C5.12098 12.7276 2.53548 10.7838 1.87302 10.3884C-0.0833809 9.21404 -0.350271 9.97631 0.355081 11.5628Z" fill="#FFC500"/>
<path d="M3.4815 8.33724C3.7198 9.29007 4.87791 12.1486 4.87791 12.1486L7.73744 10.7741C7.73744 10.7741 5.79296 8.17764 5.26633 7.62261C3.7055 5.95515 3.13121 6.88655 3.4815 8.33724Z" fill="#FFC500"/>
<path d="M7.89707 7.55789C7.96141 8.53693 8.57859 11.5503 8.57859 11.5503L11.6478 10.7189C11.6478 10.7189 10.1966 7.82945 9.77006 7.17914C8.54761 5.25918 7.7803 5.8142 7.89707 7.55789Z" fill="#FFC500"/>
<path d="M34.6051 88.7325L32.7822 76.2266H39.3639L37.5385 88.7373C37.2931 90.4214 34.8529 90.4214 34.6051 88.7325Z" fill="#FF7870"/>
<path d="M47.659 19.3447L35.9825 21.965V0.0497945C35.7943 -0.0693099 36.6974 0.0497944 37.174 0.526212C37.8889 1.24084 38.1439 1.5648 38.3655 3.14651C38.3655 3.14651 38.8421 9.81635 41.9399 14.1041C44.1417 17.1508 47.9783 19.8235 47.659 19.3447Z" fill="#FFC500"/>
<path d="M24.306 19.3398L35.9825 21.9601V0.0449116C36.1707 -0.0741927 35.2676 0.0449117 34.791 0.521329C34.0761 1.23595 33.8211 1.55754 33.5995 3.14162C33.5995 3.14162 33.1229 9.81146 30.0251 14.0992C27.8137 17.1507 23.9772 19.8186 24.306 19.3398Z" fill="#FFC500"/>
<path d="M35.7394 83.6616C50.4649 83.6616 62.4022 68.1974 62.4022 49.1213C62.4022 30.0453 50.4649 14.5811 35.7394 14.5811C21.014 14.5811 9.07666 30.0453 9.07666 49.1213C9.07666 68.1974 21.014 83.6616 35.7394 83.6616Z" fill="#FF7870"/>
<path d="M26.9225 21.6288C27.751 21.6288 28.4225 20.9575 28.4225 20.1293C28.4225 19.3012 27.751 18.6299 26.9225 18.6299C26.0941 18.6299 25.4225 19.3012 25.4225 20.1293C25.4225 20.9575 26.0941 21.6288 26.9225 21.6288Z" fill="#124346"/>
<path d="M44.3888 21.6299C45.2175 21.6299 45.8893 20.9583 45.8893 20.1299C45.8893 19.3015 45.2175 18.6299 44.3888 18.6299C43.5601 18.6299 42.8882 19.3015 42.8882 20.1299C42.8882 20.9583 43.5601 21.6299 44.3888 21.6299Z" fill="#124346"/>
</svg>
