<svg width="72" height="90" viewBox="0 0 72 90" fill="none" xmlns="http://www.w3.org/2000/svg">
<path d="M57.9962 64.7355C57.9962 64.7355 61.5325 59.9975 63.6676 61.3577C65.8027 62.7179 60.1932 75.0856 53.6973 76.4649C47.2014 77.8441 57.9962 64.7355 57.9962 64.7355Z" fill="#FFC500"/>
<path d="M12.713 64.7355C12.713 64.7355 9.17435 59.9975 7.04161 61.3577C4.90887 62.7179 10.5159 75.0856 17.0119 76.4649C23.5078 77.8441 12.713 64.7355 12.713 64.7355Z" fill="#FFC500"/>
<path d="M66.7225 26.9296C62.1544 32.0749 52.3152 40.0192 47.8972 37.2584C43.4792 34.4975 47.6589 23.4423 50.7401 16.9582C54.3788 9.30457 60.6794 4.08065 66.856 8.93296C74.1096 14.6285 71.4884 21.5366 66.7225 26.9296Z" fill="#FFC500"/>
<path d="M71.2977 10.1331C70.8998 11.0311 68.9148 13.4061 68.9148 13.4061L66.5319 11.2979C66.5319 11.2979 69.1173 9.35415 69.7774 8.95872C71.7267 7.78435 72.0007 8.54662 71.2977 10.1331Z" fill="#FFC500"/>
<path d="M68.1689 6.90853C67.9307 7.86136 66.7749 10.7199 66.7749 10.7199L63.9154 9.3454C63.9154 9.3454 65.8575 6.74893 66.3865 6.1939C67.9473 4.52644 68.5192 5.45784 68.1689 6.90853Z" fill="#FFC500"/>
<path d="M63.7557 6.12918C63.689 7.10822 63.0742 10.1216 63.0742 10.1216L60.0026 9.29021C60.0026 9.29021 61.4562 6.40074 61.8708 5.75043C63.1052 3.83047 63.8629 4.38549 63.7557 6.12918Z" fill="#FFC500"/>
<path d="M4.93508 28.3584C9.49604 33.5037 19.3376 41.4408 23.7461 38.6871C28.1545 35.9334 23.9844 24.871 20.9008 18.3869C17.2644 10.7333 10.9616 5.50936 4.78734 10.3617C-2.46635 16.0572 0.154893 22.9653 4.93508 28.3584Z" fill="#FFC500"/>
<path d="M0.355058 11.5628C0.753011 12.4608 2.73801 14.8358 2.73801 14.8358L5.12095 12.7276C5.12095 12.7276 2.53545 10.7838 1.873 10.3884C-0.0834038 9.21404 -0.350294 9.97631 0.355058 11.5628Z" fill="#FFC500"/>
<path d="M3.48149 8.33724C3.71978 9.29007 4.87789 12.1486 4.87789 12.1486L7.73743 10.7741C7.73743 10.7741 5.79294 8.17764 5.26631 7.62261C3.70549 5.95515 3.1312 6.88655 3.48149 8.33724Z" fill="#FFC500"/>
<path d="M7.89708 7.55789C7.96142 8.53693 8.57861 11.5503 8.57861 11.5503L11.6478 10.7189C11.6478 10.7189 10.1966 7.82945 9.77008 7.17914C8.54763 5.25918 7.78032 5.8142 7.89708 7.55789Z" fill="#FFC500"/>
<path d="M34.6051 88.7325L32.7822 76.2266H39.3639L37.5385 88.7373C37.2931 90.4214 34.853 90.4214 34.6051 88.7325Z" fill="#FE5F55"/>
<path d="M47.6589 19.3447L35.9825 21.965V0.0497945C35.7942 -0.0693099 36.6974 0.0497944 37.174 0.526212C37.8888 1.24084 38.1438 1.5648 38.3654 3.14651C38.3654 3.14651 38.842 9.81635 41.9399 14.1041C44.1417 17.1508 47.9782 19.8235 47.6589 19.3447Z" fill="#FFC500"/>
<path d="M24.3061 19.3398L35.9825 21.9601V0.0449116C36.1708 -0.0741927 35.2676 0.0449117 34.791 0.521329C34.0761 1.23595 33.8212 1.55754 33.5996 3.14162C33.5996 3.14162 33.123 9.81146 30.0251 14.0992C27.8138 17.1507 23.9772 19.8186 24.3061 19.3398Z" fill="#FFC500"/>
<path d="M35.7394 83.6616C50.4649 83.6616 62.4022 68.1974 62.4022 49.1213C62.4022 30.0453 50.4649 14.5811 35.7394 14.5811C21.014 14.5811 9.07664 30.0453 9.07664 49.1213C9.07664 68.1974 21.014 83.6616 35.7394 83.6616Z" fill="#FE5F55"/>
<path d="M26.9225 21.6288C27.751 21.6288 28.4225 20.9575 28.4225 20.1293C28.4225 19.3012 27.751 18.6299 26.9225 18.6299C26.0941 18.6299 25.4225 19.3012 25.4225 20.1293C25.4225 20.9575 26.0941 21.6288 26.9225 21.6288Z" fill="#124346"/>
<path d="M44.3888 21.6299C45.2175 21.6299 45.8893 20.9583 45.8893 20.1299C45.8893 19.3015 45.2175 18.6299 44.3888 18.6299C43.5601 18.6299 42.8882 19.3015 42.8882 20.1299C42.8882 20.9583 43.5601 21.6299 44.3888 21.6299Z" fill="#124346"/>
</svg>
