<svg width="48" height="60" viewBox="0 0 48 60" fill="none" xmlns="http://www.w3.org/2000/svg">
<path d="M10 0H38V46C38 53.732 31.732 60 24 60V60C16.268 60 10 53.732 10 46V0Z" fill="#FFD4BC"/>
<path d="M38.6641 43.1567C38.6641 43.1567 41.0217 39.998 42.4451 40.9048C43.8685 41.8116 40.1288 50.0568 35.7982 50.9763C31.4676 51.8957 38.6641 43.1567 38.6641 43.1567Z" fill="#FFAF54"/>
<path d="M8.47537 43.1567C8.47537 43.1567 6.11625 39.998 4.69443 40.9048C3.2726 41.8116 7.01065 50.0568 11.3413 50.9763C15.6719 51.8957 8.47537 43.1567 8.47537 43.1567Z" fill="#FFAF54"/>
<path d="M44.4817 17.9534C41.4363 21.3836 34.8768 26.6798 31.9315 24.8392C28.9862 22.9987 31.7726 15.6285 33.8267 11.3058C36.2526 6.20337 40.4529 2.72076 44.5707 5.95563C49.4064 9.75268 47.659 14.358 44.4817 17.9534Z" fill="#FFAF54"/>
<path d="M47.5318 6.75572C47.2665 7.35442 45.9432 8.93771 45.9432 8.93771L44.3546 7.53228C44.3546 7.53228 46.0782 6.23642 46.5183 5.9728C47.8178 5.18989 48.0005 5.69807 47.5318 6.75572Z" fill="#FFAF54"/>
<path d="M45.4459 4.60536C45.2871 5.24058 44.5166 7.14625 44.5166 7.14625L42.6102 6.22994C42.6102 6.22994 43.905 4.49896 44.2576 4.12894C45.2982 3.0173 45.6795 3.63823 45.4459 4.60536Z" fill="#FFAF54"/>
<path d="M42.5038 4.08612C42.4593 4.73881 42.0495 6.74771 42.0495 6.74771L40.0017 6.19347C40.0017 6.19347 40.9708 4.26716 41.2472 3.83362C42.0701 2.55364 42.5753 2.92366 42.5038 4.08612Z" fill="#FFAF54"/>
<path d="M3.29003 18.9056C6.33067 22.3358 12.8917 27.6272 15.8307 25.7914C18.7696 23.9556 15.9895 16.5806 13.9339 12.258C11.5096 7.15552 7.30768 3.67291 3.19154 6.90778C-1.64426 10.7048 0.103237 15.3102 3.29003 18.9056Z" fill="#FFAF54"/>
<path d="M0.23668 7.70884C0.501982 8.30754 1.82531 9.89083 1.82531 9.89083L3.41394 8.4854C3.41394 8.4854 1.69028 7.18955 1.24864 6.92593C-0.055628 6.14302 -0.233555 6.6512 0.23668 7.70884Z" fill="#FFAF54"/>
<path d="M2.32096 5.55848C2.47982 6.19371 3.2519 8.09938 3.2519 8.09938L5.15826 7.18307C5.15826 7.18307 3.86193 5.45208 3.51085 5.08207C2.47029 3.97043 2.08743 4.59136 2.32096 5.55848Z" fill="#FFAF54"/>
<path d="M5.26475 5.03925C5.30765 5.69194 5.7191 7.70083 5.7191 7.70083L7.76526 7.1466C7.76526 7.1466 6.79778 5.22028 6.51342 4.78674C5.69845 3.50677 5.18691 3.87679 5.26475 5.03925Z" fill="#FFAF54"/>
<path d="M23.0701 59.1557L21.8548 50.8184H26.2426L25.0257 59.1588C24.8621 60.2816 23.2353 60.2816 23.0701 59.1557Z" fill="#FF6124"/>
<path d="M31.7726 12.8968L23.9883 14.6436V0.0335218C23.8628 -0.045881 24.4649 0.0335218 24.7826 0.351133C25.2592 0.827551 25.4292 1.04353 25.577 2.098C25.577 2.098 25.8947 6.54456 27.9599 9.40306C29.4278 11.4342 31.9855 13.216 31.7726 12.8968Z" fill="#FFAF54"/>
<path d="M16.204 12.8939L23.9883 14.6407V0.0305921C24.1138 -0.0488107 23.5117 0.0305922 23.194 0.348204C22.7174 0.824621 22.5474 1.03901 22.3997 2.09507C22.3997 2.09507 22.082 6.54163 20.0167 9.40013C18.5425 11.4344 15.9848 13.2131 16.204 12.8939Z" fill="#FFAF54"/>
<path d="M23.8263 55.7744C33.6432 55.7744 41.6015 45.4649 41.6015 32.7475C41.6015 20.0302 33.6432 9.7207 23.8263 9.7207C14.0093 9.7207 6.05109 20.0302 6.05109 32.7475C6.05109 45.4649 14.0093 55.7744 23.8263 55.7744Z" fill="#FF6124"/>
<path d="M17.9484 14.4192C18.5006 14.4192 18.9484 13.9716 18.9484 13.4196C18.9484 12.8675 18.5006 12.4199 17.9484 12.4199C17.3961 12.4199 16.9484 12.8675 16.9484 13.4196C16.9484 13.9716 17.3961 14.4192 17.9484 14.4192Z" fill="#124346"/>
<path d="M29.5925 14.4199C30.145 14.4199 30.5929 13.9722 30.5929 13.4199C30.5929 12.8676 30.145 12.4199 29.5925 12.4199C29.04 12.4199 28.5922 12.8676 28.5922 13.4199C28.5922 13.9722 29.04 14.4199 29.5925 14.4199Z" fill="#124346"/>
</svg>
