<svg width="20" height="19" viewBox="0 0 20 19" fill="none" xmlns="http://www.w3.org/2000/svg">
<path d="M0 7.04358e-07H19.138C19.2256 -0.000146387 19.3118 0.0227469 19.3878 0.0663857C19.4638 0.110025 19.527 0.172876 19.5711 0.24864C19.6151 0.324403 19.6385 0.410418 19.6388 0.498061C19.6392 0.585705 19.6165 0.671897 19.573 0.748001L16 7L19.573 13.252C19.6165 13.3281 19.6392 13.4143 19.6388 13.5019C19.6385 13.5896 19.6151 13.6756 19.5711 13.7514C19.527 13.8271 19.4638 13.89 19.3878 13.9336C19.3118 13.9773 19.2256 14.0001 19.138 14H2V19H0V7.04358e-07Z" fill="#0A4346"/>
</svg>
