<svg width="24" height="24" viewBox="0 0 24 24" fill="none" xmlns="http://www.w3.org/2000/svg">
<path d="M14.515 4.9999L17.121 2.3929C17.2139 2.29992 17.3241 2.22616 17.4455 2.17584C17.5669 2.12551 17.6971 2.09961 17.8285 2.09961C17.9599 2.09961 18.09 2.12551 18.2114 2.17584C18.3328 2.22616 18.4431 2.29992 18.536 2.3929L22.778 6.6359C22.9655 6.82342 23.0708 7.07773 23.0708 7.3429C23.0708 7.60806 22.9655 7.86237 22.778 8.0499L19 11.8279V20.9999C19 21.2651 18.8946 21.5195 18.7071 21.707C18.5196 21.8945 18.2652 21.9999 18 21.9999H5.99999C5.73477 21.9999 5.48042 21.8945 5.29288 21.707C5.10534 21.5195 4.99999 21.2651 4.99999 20.9999V11.8279L1.22199 8.0499C1.03451 7.86237 0.929199 7.60806 0.929199 7.3429C0.929199 7.07773 1.03451 6.82342 1.22199 6.6359L5.46399 2.3929C5.55686 2.29992 5.66715 2.22616 5.78855 2.17584C5.90994 2.12551 6.04007 2.09961 6.17149 2.09961C6.3029 2.09961 6.43303 2.12551 6.55443 2.17584C6.67582 2.22616 6.78611 2.29992 6.87899 2.3929L9.48499 4.9999H14.515Z" fill="#0A4346"/>
</svg>
