<svg width="25" height="24" viewBox="0 0 25 24" fill="none" xmlns="http://www.w3.org/2000/svg">
<g clip-path="url(#clip0_310_1289)">
<path d="M12.49 2C6.97 2 2.5 6.48 2.5 12C2.5 17.52 6.97 22 12.49 22C18.02 22 22.5 17.52 22.5 12C22.5 6.48 18.02 2 12.49 2ZM12.5 20C8.08 20 4.5 16.42 4.5 12C4.5 7.58 8.08 4 12.5 4C16.92 4 20.5 7.58 20.5 12C20.5 16.42 16.92 20 12.5 20Z" fill="#0A4346"/>
<path d="M13 7H11.5V13L16.75 16.15L17.5 14.92L13 12.25V7Z" fill="#0A4346"/>
</g>
<defs>
<clipPath id="clip0_310_1289">
<rect width="24" height="24" fill="white" transform="translate(0.5)"/>
</clipPath>
</defs>
</svg>
