<svg width="21" height="18" viewBox="0 0 21 18" fill="none" xmlns="http://www.w3.org/2000/svg">
<path d="M17.5 16H3.5V17C3.5 17.2652 3.39464 17.5196 3.20711 17.7071C3.01957 17.8946 2.76522 18 2.5 18H1.5C1.23478 18 0.98043 17.8946 0.792893 17.7071C0.605357 17.5196 0.5 17.2652 0.5 17V8L3.013 1.298C3.15593 0.916693 3.41186 0.588102 3.74656 0.356153C4.08126 0.124204 4.47878 -5.06984e-05 4.886 1.55178e-08H16.114C16.5212 -5.06984e-05 16.9187 0.124204 17.2534 0.356153C17.5881 0.588102 17.8441 0.916693 17.987 1.298L20.5 8V17C20.5 17.2652 20.3946 17.5196 20.2071 17.7071C20.0196 17.8946 19.7652 18 19.5 18H18.5C18.2348 18 17.9804 17.8946 17.7929 17.7071C17.6054 17.5196 17.5 17.2652 17.5 17V16ZM2.636 8H18.364L16.114 2H4.886L2.636 8ZM5 13C5.39782 13 5.77936 12.842 6.06066 12.5607C6.34196 12.2794 6.5 11.8978 6.5 11.5C6.5 11.1022 6.34196 10.7206 6.06066 10.4393C5.77936 10.158 5.39782 10 5 10C4.60218 10 4.22064 10.158 3.93934 10.4393C3.65804 10.7206 3.5 11.1022 3.5 11.5C3.5 11.8978 3.65804 12.2794 3.93934 12.5607C4.22064 12.842 4.60218 13 5 13ZM16 13C16.3978 13 16.7794 12.842 17.0607 12.5607C17.342 12.2794 17.5 11.8978 17.5 11.5C17.5 11.1022 17.342 10.7206 17.0607 10.4393C16.7794 10.158 16.3978 10 16 10C15.6022 10 15.2206 10.158 14.9393 10.4393C14.658 10.7206 14.5 11.1022 14.5 11.5C14.5 11.8978 14.658 12.2794 14.9393 12.5607C15.2206 12.842 15.6022 13 16 13Z" fill="#0A4346"/>
</svg>
