<svg width="387" height="614" viewBox="0 0 387 614" fill="none" xmlns="http://www.w3.org/2000/svg">
<g clip-path="url(#clip0_172_3436)">
<rect width="387" height="614" fill="#FFF5F0"/>
<path d="M370.089 79.95C289.182 115.332 331.22 173.855 267.176 209.281C106.731 298.057 361.786 433.723 417.701 299.54C440.268 245.385 532.765 226.838 528.798 137.32C526.139 77.4128 426.629 55.2214 370.089 79.95Z" fill="#FFEFE6"/>
<path d="M246.936 412.022C176.698 358.737 147.971 390.628 56.9137 394.317C-34.1439 398.007 -93.2692 586.139 51.1742 569.502C109.471 562.786 170.628 634.377 246.936 587.304C298.002 555.798 296.023 449.258 246.936 412.022Z" fill="#FFEFE6"/>
<path d="M-80.7057 164.645C-42.2523 243.979 -2.19081 228.575 80.6468 266.562C163.484 304.549 301.466 163.658 165.173 113.012C110.166 92.572 88.1051 1.03663 -1.25126 8.40563C-61.0508 13.3402 -107.581 109.203 -80.7057 164.645Z" fill="#FFEFE6"/>
</g>
<defs>
<clipPath id="clip0_172_3436">
<rect width="387" height="614" fill="white"/>
</clipPath>
</defs>
</svg>
