<svg width="67" height="48" viewBox="0 0 67 48" fill="none" xmlns="http://www.w3.org/2000/svg">
<g clip-path="url(#clip0_135_2005)">
<path d="M61.4613 30.2714C61.4613 43.5256 48.8024 48 33.1867 48C17.571 48 4.91211 43.5256 4.91211 30.2714C4.91211 17.0171 12.9392 0 33.1867 0C53.6738 0 61.4613 17.0171 61.4613 30.2714Z" fill="#FE5F55"/>
<path d="M66.0787 35.8966C65.4964 34.0707 63.6322 33.0407 61.9166 33.5955C61.1789 33.8522 60.5548 34.3625 60.1538 35.0365C59.7528 35.7106 59.6007 36.5053 59.7241 37.2811C59.3393 37.0474 58.9095 36.899 58.4632 36.8458C58.017 36.7925 57.5646 36.8357 57.1362 36.9724C56.5272 37.1782 55.9922 37.5608 55.5987 38.072C55.2051 38.5832 54.9706 39.2001 54.9246 39.8452C54.1873 39.4667 53.3317 39.3956 52.5428 39.6474C50.8248 40.2045 49.907 42.1342 50.4893 43.9601C51.0716 45.7861 52.9382 46.816 54.6538 46.2612C55.2624 46.0543 55.7968 45.671 56.1898 45.1595C56.5829 44.648 56.8171 44.0311 56.8631 43.3861C57.6012 43.7644 58.4575 43.8354 59.2472 43.5838C59.9844 43.3267 60.6081 42.8162 61.0086 42.1422C61.4091 41.4682 61.5609 40.6737 61.4373 39.8982C61.8226 40.1318 62.2527 40.2803 62.6992 40.334C63.1458 40.3876 63.5986 40.3451 64.0276 40.2094C65.7432 39.6522 66.6609 37.7225 66.0787 35.8966Z" fill="#FFC500"/>
<path d="M65.9445 35.7565L50.9206 44.7873C50.0454 43.1857 49.5909 41.3858 49.6003 39.5579C49.6003 34.1621 53.4078 29.7891 58.1067 29.7891C61.629 29.7891 64.6529 32.2494 65.9445 35.7565Z" fill="#FFC500"/>
<path d="M0.174921 35.8966C0.757186 34.0707 2.62139 33.0407 4.33704 33.5955C5.07468 33.8522 5.69884 34.3625 6.09982 35.0365C6.5008 35.7106 6.65295 36.5053 6.52952 37.2811C6.91427 37.0474 7.34411 36.899 7.79036 36.8458C8.2366 36.7925 8.689 36.8357 9.11736 36.9724C9.72641 37.1782 10.2614 37.5608 10.6549 38.072C11.0485 38.5832 11.283 39.2001 11.329 39.8452C12.0663 39.4667 12.9219 39.3956 13.7108 39.6474C15.4288 40.2045 16.3465 42.1342 15.7643 43.9601C15.182 45.7861 13.3154 46.816 11.5998 46.2612C10.9911 46.0543 10.4568 45.671 10.0638 45.1595C9.67072 44.648 9.43651 44.0311 9.39052 43.3861C8.65238 43.7644 7.79606 43.8354 7.00635 43.5838C6.26915 43.3267 5.64553 42.8162 5.24501 42.1422C4.8445 41.4682 4.6927 40.6737 4.81627 39.8982C4.43104 40.1318 4.00091 40.2803 3.55436 40.334C3.10781 40.3876 2.65504 40.3451 2.22603 40.2094C0.510382 39.6522 -0.407344 37.7225 0.174921 35.8966Z" fill="#FFC500"/>
<path d="M0.309105 35.7565L15.3354 44.7873C16.2098 43.1855 16.6634 41.3855 16.6533 39.5579C16.6533 34.1621 12.8458 29.7891 8.14691 29.7891C4.62457 29.7891 1.60063 32.2494 0.309105 35.7565Z" fill="#FFC500"/>
<path d="M33.1867 27.0155C35.0394 27.0155 36.5413 25.8276 36.5413 24.3623C36.5413 22.8969 35.0394 21.709 33.1867 21.709C31.334 21.709 29.8321 22.8969 29.8321 24.3623C29.8321 25.8276 31.334 27.0155 33.1867 27.0155Z" fill="#FFC500"/>
<path d="M43.2529 23.2762C43.0688 23.2782 42.8891 23.2192 42.7416 23.1081C42.5942 22.9971 42.4871 22.8404 42.437 22.662C42.3868 22.4837 42.3964 22.2936 42.4641 22.1213C42.5319 21.949 42.6542 21.8039 42.812 21.7084C42.9486 21.624 46.2313 19.6171 49.3799 20.1478C49.5937 20.1907 49.7826 20.3157 49.9064 20.4964C50.0302 20.6771 50.0792 20.8992 50.043 21.1157C50.0069 21.3322 49.8884 21.5259 49.7127 21.6559C49.537 21.786 49.3179 21.842 49.1019 21.8121C46.5812 21.3948 43.7178 23.1339 43.689 23.1556C43.5575 23.2356 43.4065 23.2774 43.2529 23.2762Z" fill="#FFC500"/>
<path d="M49.6003 27.8593C49.4859 27.8593 49.3726 27.8358 49.2675 27.7902C49.1625 27.7446 49.0678 27.6778 48.9893 27.5939C47.3935 25.8862 43.9861 26.2818 43.9574 26.2842C43.8457 26.3032 43.7313 26.2993 43.6212 26.2726C43.5111 26.246 43.4075 26.1971 43.3166 26.129C43.2257 26.0609 43.1495 25.975 43.0925 25.8765C43.0356 25.7779 42.999 25.6688 42.9851 25.5556C42.9711 25.4425 42.9801 25.3276 43.0115 25.2181C43.0428 25.1085 43.0959 25.0065 43.1675 24.9181C43.2391 24.8298 43.3278 24.7569 43.4281 24.704C43.5285 24.6511 43.6384 24.6192 43.7513 24.6102C43.9238 24.5885 48.0332 24.1013 50.2209 26.4361C50.3332 26.5562 50.4082 26.7066 50.4365 26.869C50.4648 27.0314 50.4453 27.1986 50.3803 27.35C50.3153 27.5013 50.2077 27.6302 50.0708 27.7207C49.9339 27.8112 49.7737 27.8594 49.6099 27.8593H49.6003Z" fill="#FFC500"/>
<path d="M23.0031 23.2762C22.8486 23.2777 22.6968 23.2359 22.5646 23.1556C22.5358 23.1387 19.6748 21.3996 17.1517 21.8218C17.0416 21.8438 16.9282 21.8434 16.8182 21.8206C16.7083 21.7977 16.604 21.7529 16.5116 21.6888C16.4192 21.6246 16.3405 21.5424 16.2803 21.4471C16.22 21.3518 16.1793 21.2452 16.1607 21.1338C16.1421 21.0223 16.1459 20.9083 16.1719 20.7983C16.1979 20.6884 16.2456 20.5848 16.3121 20.4938C16.3785 20.4027 16.4625 20.326 16.559 20.2683C16.6555 20.2105 16.7625 20.1728 16.8737 20.1574C20.0246 19.6244 23.305 21.6288 23.4415 21.7084C23.5992 21.8037 23.7213 21.9486 23.7892 22.1207C23.857 22.2928 23.8667 22.4826 23.8169 22.6608C23.767 22.839 23.6604 22.9958 23.5133 23.107C23.3663 23.2182 23.187 23.2777 23.0031 23.2762Z" fill="#FFC500"/>
<path d="M16.6532 27.8593C16.4905 27.8571 16.3319 27.8073 16.1967 27.7159C16.0616 27.6245 15.9559 27.4955 15.8924 27.3446C15.8289 27.1937 15.8103 27.0275 15.8391 26.8662C15.8678 26.7049 15.9426 26.5555 16.0542 26.4362C18.2371 24.1014 22.3465 24.5862 22.5238 24.6103C22.7368 24.6466 22.9276 24.7642 23.0565 24.9386C23.1855 25.113 23.2426 25.3307 23.2161 25.5465C23.1895 25.7622 23.0813 25.9594 22.9139 26.0968C22.7466 26.2342 22.533 26.3014 22.3177 26.2843C22.2842 26.2843 18.8769 25.8863 17.2858 27.594C17.2049 27.6806 17.1067 27.749 16.9977 27.7947C16.8887 27.8404 16.7713 27.8624 16.6532 27.8593Z" fill="#FFC500"/>
<circle cx="25.5" cy="18.5" r="1.5" fill="#124346"/>
<circle cx="40.5" cy="18.5" r="1.5" fill="#124346"/>
</g>
<defs>
<clipPath id="clip0_135_2005">
<rect width="66.2536" height="48" fill="white"/>
</clipPath>
</defs>
</svg>
